#!OML:ASF H:\Not Pregnant\Project 1\Capture day 1\Session 1\non-pregnant.ASF
:FULLY-SPECIFIED
:DEGREES
284
root -5.72725 16.3337 34.8322 167.998 -81.6374 -154.855
lowerback -11.9498 2.20869 1.8915
upperback -6.75681 2.4007 -0.0510679
thorax -0.284763 1.00737 -0.839126
lowerneck 16.1666 -6.66442 -31.2589
upperneck -6.78493 -15.3791 42.5517
head 1.98845 -10.2039 23.2007
rclavicle -1.9953e-014 -1.43125e-014
rhumerus -36.4986 7.48617 -94.7163
rradius 26.145
rwrist 22.4433
rhand -8.57383 3.20589
rfingers 7.12502
rthumb 17.3566 -26.0391
lclavicle -1.9953e-014 -1.43125e-014
lhumerus -43.1879 -11.0199 94.6559
lradius 31.3105
lwrist 37.6174
lhand -9.20114 -14.8028
lfingers 7.12502
lthumb 16.7528 14.4944
rfemur -8.96549 -7.40113 22.3776
rtibia 5.1817
rfoot -12.2314 13.4414
rtoes -13.5858
lfemur -14.9383 3.99631 -15.79
ltibia 13.4468
lfoot -13.6097 -7.90719
ltoes -19.8613
285
root -5.72719 16.3341 34.8329 168.189 -81.5941 -155.035
lowerback -11.9542 2.23227 1.88467
upperback -6.7559 2.43283 -0.0773859
thorax -0.27971 1.02327 -0.858628
lowerneck 16.1751 -6.67711 -31.2135
upperneck -6.84936 -15.385 42.6024
head 1.97574 -10.2155 23.2264
rclavicle -2.28105e-014 -3.18055e-015
rhumerus -36.523 7.32646 -94.6578
rradius 26.1447
rwrist 22.4443
rhand -8.54493 3.23602
rfingers 7.12502
rthumb 17.3844 -26.0066
lclavicle -2.28105e-014 -3.18055e-015
lhumerus -43.1542 -10.9298 94.5234
lradius 31.306
lwrist 37.993
lhand -9.13929 -14.7499
lfingers 7.12502
lthumb 16.8124 14.5423
rfemur -9.00392 -7.35353 22.3592
rtibia 5.21031
rfoot -12.2294 13.4407
rtoes -13.5764
lfemur -14.931 4.03585 -15.8056
ltibia 13.4212
lfoot -13.597 -7.90286
ltoes -19.8788
286
root -5.72708 16.3345 34.8336 168.383 -81.551 -155.216
lowerback -11.958 2.25897 1.88162
upperback -6.75525 2.46885 -0.110221
thorax -0.274632 1.04092 -0.886562
lowerneck 16.1979 -6.69225 -31.1643
upperneck -6.9227 -15.3977 42.6613
head 1.96182 -10.2333 23.2578
rclavicle -4.64162e-014 -1.47101e-014
rhumerus -36.5525 7.18445 -94.6162
rradius 26.1582
rwrist 22.4124
rhand -8.50185 3.28179
rfingers 7.12502
rthumb 17.4259 -25.9571
lclavicle -4.64162e-014 -1.47101e-014
lhumerus -43.1314 -10.8769 94.4084
lradius 31.3026
lwrist 38.2852
lhand -9.11324 -14.7188
lfingers 7.12502
lthumb 16.8374 14.5712
rfemur -9.04828 -7.3059 22.3407
rtibia 5.24953
rfoot -12.2286 13.4419
rtoes -13.5493
lfemur -14.9215 4.07238 -15.8212
ltibia 13.3914
lfoot -13.5824 -7.8948
ltoes -19.9104
287
root -5.727 16.3349 34.8343 168.585 -81.5095 -155.408
lowerback -11.9628 2.28048 1.87333
upperback -6.75375 2.4984 -0.136414
thorax -0.268801 1.05558 -0.905387
lowerneck 16.2232 -6.70405 -31.1253
upperneck -6.99724 -15.4066 42.715
head 1.94566 -10.2485 23.2896
rclavicle -1.95306e-014 -5.56597e-015
rhumerus -36.5884 7.09401 -94.5865
rradius 26.1853
rwrist 22.3374
rhand -8.45883 3.31571
rfingers 7.12502
rthumb 17.4673 -25.9195
lclavicle -1.95306e-014 -5.56597e-015
lhumerus -43.1212 -10.8395 94.326
lradius 31.2967
lwrist 38.4535
lhand -9.14883 -14.7213
lfingers 7.12502
lthumb 16.8032 14.5716
rfemur -9.09346 -7.25984 22.3186
rtibia 5.29136
rfoot -12.2242 13.446
rtoes -13.4983
lfemur -14.9113 4.10593 -15.8395
ltibia 13.3615
lfoot -13.5664 -7.88771
ltoes -19.933
288
root -5.72704 16.3353 34.8353 168.814 -81.476 -155.629
lowerback -11.9676 2.29879 1.86378
upperback -6.75054 2.524 -0.164956
thorax -0.261226 1.06835 -0.926357
lowerneck 16.2562 -6.71487 -31.0812
upperneck -7.07868 -15.4108 42.76
head 1.92198 -10.2607 23.3147
rclavicle -1.90336e-014 0
rhumerus -36.625 7.01145 -94.5604
rradius 26.2176
rwrist 22.2601
rhand -8.42989 3.32163
rfingers 7.12502
rthumb 17.4952 -25.9111
lclavicle -1.90336e-014 0
lhumerus -43.1339 -10.8609 94.2885
lradius 31.2969
lwrist 38.4966
lhand -9.26817 -14.7511
lfingers 7.12502
lthumb 16.6883 14.5515
rfemur -9.13522 -7.22165 22.2869
rtibia 5.33473
rfoot -12.2207 13.4512
rtoes -13.4473
lfemur -14.8988 4.14064 -15.8674
ltibia 13.3317
lfoot -13.5507 -7.89141
ltoes -19.937
289
root -5.72712 16.3358 34.8363 168.978 -81.4404 -155.782
lowerback -11.9793 2.32152 1.86526
upperback -6.74565 2.55414 -0.192026
thorax -0.247594 1.08318 -0.951175
lowerneck 16.3095 -6.72831 -31.0218
upperneck -7.18189 -15.4127 42.7969
head 1.88454 -10.2725 23.3311
rclavicle 2.33572e-014 4.37326e-015
rhumerus -36.6599 6.92396 -94.5305
rradius 26.2545
rwrist 22.1882
rhand -8.45436 3.28119
rfingers 7.12502
rthumb 17.4716 -25.9537
lclavicle 2.33572e-014 4.37326e-015
lhumerus -43.1698 -10.9472 94.265
lradius 31.3778
lwrist 38.7635
lhand -9.23582 -14.6652
lfingers 7.12502
lthumb 16.7194 14.6348
rfemur -9.17838 -7.18302 22.2666
rtibia 5.3764
rfoot -12.2153 13.4587
rtoes -13.3908
lfemur -14.8908 4.19069 -15.886
ltibia 13.3034
lfoot -13.5349 -7.91128
ltoes -19.9167
290
root -5.72721 16.3364 34.8374 169.13 -81.4063 -155.924
lowerback -11.9937 2.3492 1.87007
upperback -6.73999 2.59056 -0.223884
thorax -0.2312 1.10104 -0.98195
lowerneck 16.3865 -6.74483 -30.9389
upperneck -7.30471 -15.4135 42.8276
head 1.8329 -10.2853 23.338
rclavicle 3.42904e-015 1.98785e-015
rhumerus -36.6936 6.81025 -94.4912
rradius 26.2956
rwrist 22.1392
rhand -8.48581 3.23966
rfingers 7.12502
rthumb 17.4413 -25.9979
lclavicle 3.42904e-015 1.98785e-015
lhumerus -43.2196 -11.073 94.2306
lradius 31.5197
lwrist 39.2514
lhand -9.03468 -14.4877
lfingers 7.12502
lthumb 16.9131 14.7958
rfemur -9.21763 -7.14637 22.2467
rtibia 5.412
rfoot -12.2075 13.4641
rtoes -13.3393
lfemur -14.8844 4.24234 -15.9044
ltibia 13.2773
lfoot -13.5175 -7.93554
ltoes -19.8678
291
root -5.72743 16.337 34.8384 169.258 -81.3732 -156.039
lowerback -12.0134 2.38458 1.87948
upperback -6.73419 2.63666 -0.263193
thorax -0.210857 1.12355 -1.02165
lowerneck 16.484 -6.7687 -30.824
upperneck -7.44663 -15.4165 42.8506
head 1.76828 -10.3004 23.3302
rclavicle -2.03257e-014 -2.70347e-014
rhumerus -36.7225 6.64056 -94.4345
rradius 26.3355
rwrist 22.1395
rhand -8.53367 3.19773
rfingers 7.12502
rthumb 17.3953 -26.0439
lclavicle -2.03257e-014 -2.70347e-014
lhumerus -43.2786 -11.2433 94.1867
lradius 31.7151
lwrist 39.9373
lhand -8.68366 -14.2082
lfingers 7.12502
lthumb 17.2509 15.0461
rfemur -9.24941 -7.11145 22.2307
rtibia 5.43129
rfoot -12.189 13.4754
rtoes -13.2591
lfemur -14.8845 4.30895 -15.9207
ltibia 13.2576
lfoot -13.5058 -7.97431
ltoes -19.8167
292
root -5.72759 16.3376 34.8394 169.383 -81.3389 -156.149
lowerback -12.036 2.40926 1.88513
upperback -6.72833 2.66863 -0.290989
thorax -0.190008 1.1392 -1.04888
lowerneck 16.5671 -6.78771 -30.726
upperneck -7.57512 -15.4128 42.8633
head 1.7074 -10.3093 23.3196
rclavicle -1.59525e-014 -9.93923e-015
rhumerus -36.7465 6.47355 -94.3605
rradius 26.3708
rwrist 22.1853
rhand -8.5816 3.16379
rfingers 7.12502
rthumb 17.3492 -26.0819
lclavicle -1.59525e-014 -9.93923e-015
lhumerus -43.3295 -11.3674 94.1443
lradius 31.916
lwrist 40.6388
lhand -8.32938 -13.8802
lfingers 7.12502
lthumb 17.5919 15.3439
rfemur -9.27977 -7.07512 22.2172
rtibia 5.44359
rfoot -12.1708 13.4834
rtoes -13.203
lfemur -14.889 4.37777 -15.9369
ltibia 13.2406
lfoot -13.4983 -8.00767
ltoes -19.7863
